<?xml version="1.0" encoding="UTF-8"?><svg id="Layer_2" xmlns="http://www.w3.org/2000/svg" viewBox="0 0 133.04 140.34"><defs><style>.cls-1{fill:#1a1a1a;stroke-width:0px;}</style></defs><g id="Layer_1-2"><path class="cls-1" d="M23.26,57.38c-4.21,4.43-7.48,8.1-10.26,11.66-.46.58-1.34.51-1.73-.12-3.81-6.87-8.5-16.45-5.37-16.31,5.84,1.01,11.72,2.77,17.35,4.77"/><path class="cls-1" d="M87.19,139.51c-1.65,1.37-4.07.69-5.86.46-9.53-1.22-21.38-9.11-30.23-18.01,1.42-2.05,4.17-5.26,6.38-7.14l10.12,9.6,2.86-2-10.05-10.49c1.04-1.35,4.33-4.15,6.85-6.75.06,0,4.12-4.12,9.5-7.94,3.26,6.21,6.28,13.15,8.67,23.07,2.77,11.56,3.83,17.53,1.76,19.21"/><path class="cls-1" d="M123.74,112.62c-.09,8.16-1.93,10.22-3.79,11.39-6,3.83-16.92,10.69-26.61,15.31-.03-6.67-.64-11.46-3.62-23.48-3.26-13.17-7.94-22.06-7.46-22.43,7.06-5.7,31.27-21.57,33.44-17.76,4.79,8.37,8.13,27.39,8.03,36.96"/><path class="cls-1" d="M123.18,83.4c-1.72-7.8-2.8-9.99-4.45-12.66-1.25-2.02-4.22-1.62-6.28-1.2-12.49,2.86-27.03,13.1-41.22,24.82-16.2,13.21-24.45,24.07-32.89,35.21-.09.07-.18.14-.28.21-.03.03-.07.05-.1.07-.05.04-.08.06-.13.09-.02,0-.02.01-.04.02-.02.02-.04.03-.05.04-.08.05-.15.08-.21.12-.76.43-1.62.67-2.52.68-4.55.01-7.59-.7-12.61-1.24-.14-.01-.23-.15-.16-.27,14.3-30.6,75.74-81,107.77-83.13,1.07-.27,2.09.48,2.39,1.62,3.57,13.48-9.23,35.63-9.23,35.63"/><path class="cls-1" d="M46.32,36.88c-9.62,7.38-18.86,16.51-18.86,16.51,0,0-9.12-9.68-13.92-14.98-.11-2.49.5-9.39,1.57-13.48,1.51-5.84,3.81-8.82,6.16-11.57.37-.43,1.07-.41,1.5-.05,10.6,8.75,16.18,14.95,23.54,23.57"/><path class="cls-1" d="M84.84,14.38c-12.83,5.19-25.31,13.47-33.84,19.29-7.67-8.63-12.06-14.64-23.34-24.28-.34-.27-.09-.64.3-.87C34.54,4.56,47.18-1.61,63.1.39c.05,0,.1,0,.15.03,8.67,2.22,15.08,7.01,21.59,13.96"/><path class="cls-1" d="M132.86,37c.09.51-.23,2.28-.75,2.38-42.02,7.88-92.42,46.78-114.16,85.38-4.38-4.44-10.96-18.45-14.69-29.6-6.28-18.76-1.6-37.04-1.26-37.62.83,4.98,6.45,24.74,12.62,18.37,8.07-9.81,18.65-21.35,32.49-32.07,18.67-14.45,38.89-27.97,63.72-32.36,1.19-.21,2.42-.07,3.52.41,4.74,2.03,8.25,7.47,11.15,11.57,4.53,6.41,6.93,11.18,7.36,13.54"/></g></svg>