<?xml version="1.0" encoding="UTF-8"?><svg id="Layer_2" xmlns="http://www.w3.org/2000/svg" viewBox="0 0 139.43 147.09"><defs><style>.cls-1{fill:#1a1a1a;}.cls-1,.cls-2,.cls-3{stroke-width:0px;}.cls-2{fill:#333;}.cls-3{fill:#4d4d4d;}</style></defs><g id="Layer_1-2"><path class="cls-1" d="M24.37,60.13c-4.42,4.64-7.84,8.49-10.76,12.23-.48.61-1.41.54-1.81-.13-4-7.2-8.9-17.24-5.62-17.09,6.12,1.05,12.28,2.9,18.19,5"/><path class="cls-2" d="M91.38,146.22c-1.73,1.43-4.27.72-6.14.48-9.99-1.28-22.41-9.55-31.68-18.88,1.48-2.15,4.38-5.51,6.69-7.49l10.61,10.06,3-2.09-10.53-10.99c1.09-1.41,4.54-4.35,7.18-7.07.07,0,4.32-4.32,9.95-8.32,3.42,6.51,6.59,13.78,9.09,24.17,2.91,12.11,4.01,18.37,1.84,20.13"/><path class="cls-3" d="M129.69,118.04c-.1,8.55-2.02,10.71-3.97,11.94-6.29,4.02-17.73,11.2-27.89,16.05-.03-6.99-.67-12.01-3.79-24.6-3.42-13.8-8.32-23.12-7.81-23.51,7.4-5.98,32.77-22.61,35.05-18.61,5.02,8.78,8.52,28.71,8.41,38.74"/><path class="cls-2" d="M129.1,87.41c-1.8-8.17-2.93-10.47-4.66-13.27-1.31-2.11-4.43-1.7-6.59-1.26-13.09,3-28.32,13.73-43.2,26.02-16.98,13.85-25.63,25.22-34.47,36.9-.09.07-.19.15-.29.22-.03.04-.07.06-.1.07-.05.04-.09.07-.13.09-.02,0-.02.01-.04.02-.02.02-.04.03-.06.04-.08.05-.15.09-.22.13-.8.45-1.69.7-2.64.71-4.77.01-7.95-.74-13.22-1.3-.15-.01-.24-.16-.17-.28,14.99-32.07,79.38-84.9,112.95-87.12,1.12-.28,2.19.5,2.5,1.69,3.74,14.13-9.67,37.34-9.67,37.34"/><path class="cls-2" d="M48.54,38.66c-10.08,7.74-19.77,17.3-19.77,17.3,0,0-9.55-10.15-14.59-15.7-.11-2.61.53-9.84,1.65-14.13,1.59-6.12,3.99-9.25,6.46-12.13.39-.45,1.12-.43,1.57-.06,11.11,9.17,16.96,15.67,24.67,24.71"/><path class="cls-3" d="M88.91,15.07c-13.45,5.44-26.52,14.12-35.47,20.21-8.04-9.05-12.64-15.34-24.46-25.44-.36-.28-.09-.67.31-.91C36.2,4.78,49.45-1.69,66.13.41c.05,0,.1,0,.15.04,9.09,2.33,15.8,7.34,22.63,14.63"/><path class="cls-3" d="M139.25,38.78c.1.54-.24,2.39-.79,2.49-44.04,8.26-96.86,49.02-119.65,89.48-4.59-4.66-11.49-19.34-15.4-31.02-6.58-19.67-1.68-38.82-1.32-39.43.88,5.22,6.76,25.93,13.22,19.25,8.45-10.28,19.55-22.38,34.05-33.61,19.57-15.14,40.76-29.32,66.79-33.91,1.24-.22,2.53-.07,3.69.43,4.97,2.13,8.65,7.83,11.69,12.12,4.75,6.72,7.26,11.72,7.72,14.19"/></g></svg>