<?xml version="1.0" encoding="UTF-8"?><svg id="Layer_2" xmlns="http://www.w3.org/2000/svg" xmlns:xlink="http://www.w3.org/1999/xlink" viewBox="0 0 601.59 140.34"><defs><style>.cls-1{fill:#1a1a1a;}.cls-1,.cls-2{stroke-width:0px;}.cls-2{fill:none;}.cls-3{clip-path:url(#clippath);}</style><clipPath id="clippath"><rect class="cls-2" width="601.59" height="140.34"/></clipPath></defs><g id="Layer_1-2"><g class="cls-3"><path class="cls-1" d="M206.97,79.14c-1.42-.18-22.08,26.62-23.69,25.83-.55-.25-10.69-25.01-11.01-25.42-.11-.25-.36-.41-.64-.41h-8.69c-1.54-.27-9.61,47.19-10.24,47.72-.08.41.24.79.68.79.57-.29,9.43.62,9.26-.54.76.02,5.23-34.09,7.43-30.36,0,0,7.96,18.41,7.96,18.41-.06.84,6.95.23,7.36.41.75.2,16.35-18.52,16.87-18.76,4.17-3.03-7.15,32.09-4.15,30.84h8.73c1.54.27,9.61-47.19,10.24-47.72.87-1.62-9.76-.46-10.11-.79"/><path class="cls-1" d="M249.48,111.04c-1.15,6.13-4.63,9.03-10.68,9.06-9.65.54-8.86-13.15-3.77-17.81,6.64-5.65,17.41-.84,14.45,8.74M259.6,104.01c-6.46-24.08-45.61-10.01-37.24,14.57,3.45,10.21,17.64,11.51,26.14,7.59,8.2-3.66,12.48-13.54,11.1-22.17"/><path class="cls-1" d="M296.01,92.42c-1.09-.2-13.54,23.75-14.17,24.13h-1.13l-3.68-23.56c-.05-.32-.34-.56-.68-.56h-9.18c-.44,0-.77.39-.67.8.65.56,6.95,35.07,8.47,34.85,0,0,8.64,0,8.64,0,.97.24,21.62-34.33,22.2-34.65.28-.44-.05-1-.59-1h-9.2Z"/><path class="cls-1" d="M316.84,106.55c1.84-9.2,18.3-11.01,17.84,0h-17.84ZM342.52,100.61c-2.88-9.68-15.61-10.33-23.75-6.85-24.79,13.21-11.99,45.65,19.89,30.72l-1.38-5.6c-7.75,1.95-21.71,4.67-21.42-6.66h26.48c.94-3.8,1.4-8.28.18-11.62"/><path class="cls-1" d="M411.74,103.61l-4.86,24.1c.43,1.11-10.33.3-10.65.54-.43,0-.76-.38-.68-.79l4.34-21.29c1.57-7.48-8.23-5.47-12.29-3.23-.02.32-.07.64-.13.96l-4.86,23.82c-.06.31-.35.54-.68.54h-9.71c-2.69-7.38,14.11-36.46-8.68-25.01l-4.92,24.47c.38,1.14-10.03.29-10.39.54-2.13-.08,6.92-35.03,6.46-35.89-.18-1.12,7.33-.3,7.79-.53,1.25-.11.5,3.04.69,3.64,7.93-4.47,17.56-6.58,24.01.13,8.92-5.97,27.64-7.34,24.58,8.02"/><path class="cls-1" d="M429.65,106.55c1.84-9.22,18.28-11.01,17.84,0h-17.84ZM455.33,100.61c-2.89-9.68-15.62-10.33-23.75-6.85-24.78,13.14-12.04,45.66,19.86,30.72l-1.35-5.6c-7.77,1.96-21.7,4.67-21.44-6.66h26.5c.9-3.81,1.4-8.28.18-11.62"/><path class="cls-1" d="M501.23,103.1l-5.08,24.61c-.06.31-.35.53-.68.53h-9.78c-2.02.78,4.07-22.1,3.69-22.38,1.11-7.32-8.52-5.01-12.62-2.97-1.25.37-4.46,25.5-6.04,25.35,0,0-9.69,0-9.69,0-.43,0-.76-.38-.68-.79l7.12-35.1c-.17-1.12,7.26-.3,7.72-.54,1.26-.12.49,3.22.69,3.81,8.34-6,27.79-7.29,25.35,7.47"/><path class="cls-1" d="M526.74,100.16c12.37-.64,10.18,2.95,12.19-6.86.68-2.33-11.78.57-11.12-1.76l1.77-8.86c.11-.53-.4-.99-.94-.85-.32.19-9.64,1.94-9.22,2.68-2.07,9.74.15,7.26-9.47,9.54-.95-.05-1.21,4.74-1.51,5.23-.11,2.33,7.8-.59,7.66,1.75-3.94,18.26-9.88,32.52,16.85,25.27l-.11-6.77c-3.53.33-11.16,1.72-9.85-4.06.33-.21,2.62-16.25,3.76-15.32"/><path class="cls-1" d="M180.85,44.43h-11.07l-5.66,25.42h11.12l3.86-17.24h22.37l1.89-8.24-22.51.07ZM172.87,30.5l-.91,4.08h36.4l1.87-8.32h-31.48c-2.87,0-5.34,1.78-5.88,4.24"/><path class="cls-1" d="M242.93,45c-3.14,2.27-13.53,1.12-17.45,1.38.24-1.16,2.35-10.44,2.64-11.84,3.64.4,14.02-1.18,16.78,1.56,2.45,2.16.72,7.49-1.96,8.91M256.89,34.58c-3.29-11.83-22.46-7.52-31.82-8.32-5.19-.07-7.72,3.96-8.14,8.32-1.44,6.5-6.32,28.41-7.85,35.27h11.12l3.56-15.76c14.14.7,36.45-.32,33.13-19.51M243.77,52.92l-.77-1.44-10.83,1.79.41.81,7.87,15.76h12.25l-8.93-16.93Z"/><path class="cls-1" d="M278.56,26.26c-10.38-.26-10.35,11.07-12.16,18.17,0,0-5.66,25.42-5.66,25.42h38.77l1.94-8.47h-27.74l2.21-9.77h24.38c.09-.4,1.75-7.99,1.78-8.04h-24.38c.68-1.26.95-9.3,3.37-8.89h25.79c.02-.08,1.83-8.32,1.85-8.41h-30.15Z"/><path class="cls-1" d="M327.18,26.26c-10.53-.27-10.8,10.87-12.54,18.17,0,0-5.64,25.42-5.64,25.42h38.77l1.92-8.47h-27.72l2.21-9.77h24.35c.09-.4,1.75-7.99,1.78-8.04h-24.36c.51-.78,1.2-9.32,2.88-8.89h26.25c.02-.08,1.83-8.32,1.85-8.41h-29.77Z"/><path class="cls-1" d="M385.89,25.63c-6.54.05-13.33,1.1-18.13,4.99-5.35,4.44-6.57,14.32.29,17.75,3.75,2.83,13.58,3.64,16.73,7.21,3.09,9.58-22.42,5.19-26.29,6.25l-1.6,8.38c12.95.23,43.84,3.9,39.5-18.77-2.47-6.18-13.28-7.44-18.6-9.56-4.38-.94-3.81-5.36,0-6.62,4.62-1.84,18.29-.5,22.28-.69l1.6-8.38s-14.41-.57-15.79-.57"/><path class="cls-1" d="M409.77,26.26c-.05.17-1.78,8.32-1.85,8.47h16.53c-1.41,6.41-6.28,28.34-7.78,35.11h11.05c1.54-6.89,6.39-28.59,7.85-35.11h16.46c.06-.15,1.8-8.31,1.85-8.47h-44.11Z"/><path class="cls-1" d="M495.85,26.26c-4.31,5.33-11.78,14.58-16.1,19.92h-.23c-2.21-5.35-6.11-14.59-8.32-19.92h-12.04c3.9,8.35,9.26,19.9,13.17,28.27l-3.43,15.31h11.05l3.2-14.38c7.93-8.64,18.89-20.59,26.81-29.2h-14.12Z"/><path class="cls-1" d="M521.78,61.38c2.24-10.06,5.64-25.15,7.85-35.11h-11.12c-2.48,11.15-7.16,32.22-9.7,43.58h36.49l1.85-8.47h-25.37Z"/><path class="cls-1" d="M571.67,26.26c-10.47-.26-10.62,10.95-12.38,18.17l-5.64,25.42h38.77l1.92-8.47h-27.71l2.21-9.77h24.36c.09-.4,1.75-7.99,1.78-8.04h-24.36c.54-.84,1.16-9.31,2.94-8.89h26.2c.02-.08,1.83-8.32,1.85-8.41h-29.92Z"/><path class="cls-1" d="M23.26,57.38c-4.21,4.43-7.48,8.1-10.26,11.66-.46.58-1.34.51-1.73-.12-3.81-6.87-8.5-16.45-5.37-16.31,5.84,1.01,11.72,2.77,17.35,4.77"/><path class="cls-1" d="M87.19,139.51c-1.65,1.37-4.07.69-5.86.46-9.53-1.22-21.38-9.11-30.23-18.01,1.42-2.05,4.17-5.26,6.38-7.14l10.12,9.6,2.86-2-10.05-10.49c1.04-1.35,4.33-4.15,6.85-6.75.06,0,4.12-4.12,9.5-7.94,3.26,6.21,6.28,13.15,8.67,23.07,2.77,11.56,3.83,17.53,1.76,19.21"/><path class="cls-1" d="M123.74,112.62c-.09,8.16-1.93,10.22-3.79,11.39-6,3.83-16.92,10.69-26.61,15.31-.03-6.67-.64-11.46-3.62-23.48-3.26-13.17-7.94-22.06-7.46-22.43,7.06-5.7,31.27-21.57,33.44-17.76,4.79,8.37,8.13,27.39,8.03,36.96"/><path class="cls-1" d="M123.18,83.4c-1.72-7.8-2.8-9.99-4.45-12.66-1.25-2.02-4.22-1.62-6.28-1.2-12.49,2.86-27.03,13.1-41.22,24.82-16.2,13.21-24.45,24.07-32.89,35.21-.09.07-.18.14-.28.21-.03.03-.07.05-.1.07-.05.04-.08.06-.13.09-.02,0-.02.01-.04.02-.02.02-.04.03-.05.04-.08.05-.15.08-.21.12-.76.43-1.62.67-2.52.68-4.55.01-7.59-.7-12.61-1.24-.14-.01-.23-.15-.16-.27,14.3-30.6,75.74-81,107.77-83.13,1.07-.27,2.09.48,2.39,1.62,3.57,13.48-9.23,35.63-9.23,35.63"/><path class="cls-1" d="M46.32,36.88c-9.62,7.38-18.86,16.51-18.86,16.51,0,0-9.12-9.68-13.92-14.98-.11-2.49.5-9.39,1.57-13.48,1.51-5.84,3.81-8.82,6.16-11.57.37-.43,1.07-.41,1.5-.05,10.6,8.75,16.18,14.95,23.54,23.57"/><path class="cls-1" d="M84.84,14.38c-12.83,5.19-25.31,13.47-33.84,19.29-7.67-8.63-12.06-14.64-23.34-24.28-.34-.27-.09-.64.3-.87C34.54,4.56,47.18-1.61,63.1.39c.05,0,.1,0,.15.03,8.67,2.22,15.08,7.01,21.59,13.96"/><path class="cls-1" d="M132.86,37c.09.51-.23,2.28-.75,2.38-42.02,7.88-92.42,46.78-114.16,85.38-4.38-4.44-10.96-18.45-14.69-29.6-6.28-18.76-1.6-37.04-1.26-37.62.83,4.98,6.45,24.74,12.62,18.37,8.07-9.81,18.65-21.35,32.49-32.07,18.67-14.45,38.89-27.97,63.72-32.36,1.19-.21,2.42-.07,3.52.41,4.74,2.03,8.25,7.47,11.15,11.57,4.53,6.41,6.93,11.18,7.36,13.54"/></g></g></svg>