<?xml version="1.0" encoding="UTF-8"?><svg id="Layer_2" xmlns="http://www.w3.org/2000/svg" xmlns:xlink="http://www.w3.org/1999/xlink" viewBox="0 0 601.59 142.52"><defs><style>.cls-1{fill:none;}.cls-1,.cls-2{stroke-width:0px;}.cls-3{clip-path:url(#clippath);}.cls-2{fill:#fff;}</style><clipPath id="clippath"><rect class="cls-1" width="601.59" height="142.52"/></clipPath></defs><g id="Layer_1-2"><g class="cls-3"><path class="cls-2" d="M133.25,41.65c-41.11,7.63-90.47,45.09-111.8,82.21-4.27-4.26-10.69-17.71-14.33-28.42-6.12-18.02-1.51-35.59-1.17-36.15.81,4.79,6.27,23.77,12.32,17.63,7.9-9.43,16.57-19.05,30.12-29.36,18.28-13.91,39.79-28.43,64.08-32.69,1.16-.2,2.36-.07,3.44.39,4.63,1.95,8.06,7.17,10.89,11.1,4.42,6.15,6.76,10.73,7.18,13,.09.49-.23,2.19-.73,2.29M124.45,83.96c-1.68-5.64-2.54-8.48-4.33-12.16-.99-2.05-4.13-1.55-6.15-1.15-12.22,2.77-26.45,12.63-40.36,23.92-15.87,12.72-23.96,23.16-32.22,33.88-.09.07-.18.14-.27.21-.03.03-.07.05-.1.07-.04.04-.08.06-.12.09-.01,0-.02,0-.04.02-.02.02-.04.03-.05.03-.07.05-.14.08-.21.12-.74.41-1.58.65-2.46.65-4.45.02-7.42-.67-12.33-1.18-.14,0-.22-.15-.15-.26,14.03-29.42,74.2-77.95,105.54-80.04,1.05-.26,2.04.46,2.34,1.55,3.47,12.95-9.08,34.25-9.08,34.25M124.95,112.04c-.1,7.84-1.9,9.82-3.72,10.95-5.88,3.69-16.56,10.3-26.05,14.75,0-6.41-.6-11.01-3.5-22.55-3.17-12.65-7.74-21.19-7.26-21.54,6.91-5.49,30.61-20.78,32.74-17.11,4.67,8.04,7.91,26.31,7.79,35.5M89.16,137.93c-1.62,1.32-3.98.67-5.73.45-9.32-1.16-21.25-8.78-29.89-17.32,1.39-1.97,4.44-5,6.6-6.82l9.89,9.21,2.8-1.92-9.81-10.06c1.02-1.3,5.58-5.2,6.71-6.49.06,0,4.03-3.97,9.3-7.64,3.18,5.96,6.13,12.62,8.45,22.15,2.69,11.1,3.72,16.83,1.69,18.45M9.78,54.55c5.71.96,11.46,2.64,16.97,4.56-4.13,4.26-7.33,7.79-10.05,11.22-.45.56-1.31.49-1.69-.12-3.72-6.6-8.29-15.8-5.22-15.66M17.27,40.9c-.1-2.39.51-9.02,1.56-12.95,1.49-5.62,3.74-8.49,6.05-11.13.36-.41,1.05-.39,1.47-.05,10.36,8.39,15.8,14.34,22.99,22.62-9.42,7.11-18.48,15.89-18.48,15.89,0,0-8.9-9.29-13.59-14.37M31.41,12.16c6.45-3.81,18.83-9.77,34.39-7.87.05,0,.09,0,.14.03,8.48,2.12,14.74,6.71,21.1,13.38-12.56,5.01-24.24,13.1-32.6,18.71-7.49-8.28-12.31-14.17-23.33-23.41-.33-.26-.08-.61.29-.84M136.75,33.08c-.47-1.05-2.08-3.99-2.99-5.47-1.12-1.79-10.23-15.09-16.15-17.14-6.1-2.11-17.79,2.18-25.65,5.44l-1.69-1.76c-5.19-5.45-13.46-11.2-18.97-12.95C67.74.08,59.44-.17,56.36.1c-8.03.7-22.62,5.57-26.38,8.27-1.32.95-6.8,4.26-8.09,5.74-2.54,2.91-5.16,6.28-6.86,12.64-1.17,4.4-1.78,11.38-1.67,14.07l.06,1.35c3.25,3.56,7.85,8.38,11.29,12-5.52-1.76-10.11-2.97-14.76-3.66-3.74.34-6.46,4.4-7.76,7.56-1.43,4.39-4.4,21.33.66,38.26,1.1,3.7,9.05,25.18,17.39,33.18.68.65,1.91,1.81,3.28,1.94,4.7.48,11.89,1.59,16.69,1.58,1.47-.02,2.65-.41,4.51-1.91.68-.55,1.46-1.27,1.98-1.96,1.44-1.86,2.39-2.92,3.84-4.76,0,0,18.95,15.6,29.14,17.35,8.68,1.49,13.18.64,17.15-.86,1.63-.77,3.32-1.6,5-2.47,9.03-4.68,18.65-9.81,21.99-11.91,3.74-2.34,5.38-7.11,5.5-14.51.07-4.19-.4-13.47-2.38-21.88l2.77-4.04c2.7-4.79,6.1-13.03,7.94-20.17,2.02-7.84,4.83-20.04-.88-32.81"/><path class="cls-2" d="M37.88,132.38s-.08.06-.12.09c.04-.03.07-.05.11-.08,0,0,0,0,.02,0"/><path class="cls-2" d="M210.77,81.08c-1.41-.18-21.86,26.51-23.46,25.72-.55-.25-10.59-24.9-10.91-25.31-.1-.25-.35-.41-.63-.41h-8.6c-1.52-.27-9.52,46.99-10.15,47.51-.08.41.24.78.67.78.57-.29,9.34.62,9.17-.53.75.02,5.18-33.94,7.36-30.23,0,0,7.88,18.33,7.88,18.33-.06.84,6.89.23,7.29.41.74.2,16.19-18.44,16.71-18.67,4.13-3.01-7.09,31.95-4.11,30.71,0,0,8.65,0,8.65,0,1.52.27,9.52-46.99,10.14-47.51.86-1.61-9.67-.46-10.01-.79"/><path class="cls-2" d="M252.88,112.83c-1.14,6.11-4.59,8.99-10.57,9.02-9.56.54-8.78-13.09-3.74-17.73,6.58-5.63,17.24-.84,14.31,8.71M262.9,105.84c-6.39-23.97-45.17-9.96-36.88,14.51,3.41,10.17,17.46,11.46,25.89,7.56,8.12-3.64,12.36-13.48,10.99-22.07"/><path class="cls-2" d="M298.96,94.3c-1.08-.2-13.41,23.64-14.03,24.02h-1.12l-3.65-23.46c-.05-.32-.34-.56-.68-.56h-9.09c-.44,0-.76.39-.67.8.64.55,6.89,34.92,8.39,34.7,0,0,8.56,0,8.56,0,.96.24,21.41-34.18,21.98-34.5.27-.44-.05-1-.59-1h-9.11Z"/><path class="cls-2" d="M319.59,108.36c1.82-9.16,18.13-10.96,17.67,0h-17.67ZM345.02,102.45c-2.86-9.64-15.46-10.28-23.52-6.82-24.55,13.15-11.88,45.45,19.7,30.59l-1.36-5.57c-7.67,1.94-21.5,4.65-21.21-6.63h26.22c.93-3.78,1.39-8.24.18-11.57"/><path class="cls-2" d="M413.57,105.44l-4.82,24c.43,1.11-10.23.3-10.55.53-.43,0-.76-.38-.67-.79l4.3-21.2c1.55-7.45-8.15-5.45-12.18-3.22-.02.32-.07.63-.13.95l-4.81,23.72c-.06.31-.35.53-.67.53h-9.62c-2.66-7.34,13.97-36.3-8.59-24.9,0,0-4.88,24.36-4.88,24.36.38,1.13-9.93.29-10.29.53-2.11-.08,6.85-34.88,6.4-35.73-.18-1.11,7.26-.3,7.71-.53,1.23-.11.49,3.03.68,3.62,7.86-4.45,17.39-6.55,23.78.13,8.83-5.94,27.37-7.31,24.34,7.99"/><path class="cls-2" d="M431.31,108.36c1.82-9.18,18.1-10.96,17.67,0h-17.67ZM456.74,102.45c-2.87-9.64-15.47-10.29-23.52-6.82-24.54,13.08-11.92,45.46,19.67,30.59l-1.34-5.57c-7.7,1.95-21.5,4.65-21.23-6.63h26.24c.89-3.79,1.39-8.24.18-11.57"/><path class="cls-2" d="M502.2,104.93l-5.03,24.51c-.06.31-.35.53-.67.53h-9.68c-2,.77,4.03-22,3.65-22.28,1.1-7.29-8.44-4.99-12.5-2.95-1.24.37-4.42,25.39-5.98,25.24,0,0-9.6,0-9.6,0-.43,0-.75-.38-.67-.78l7.05-34.95c-.17-1.11,7.19-.3,7.64-.53,1.25-.12.49,3.2.68,3.79,8.26-5.97,27.53-7.26,25.1,7.43"/><path class="cls-2" d="M527.46,102.01c12.25-.64,10.08,2.94,12.07-6.83.67-2.32-11.67.57-11.01-1.75l1.76-8.82c.1-.53-.4-.98-.93-.85-.32.19-9.55,1.94-9.13,2.67-2.05,9.7.14,7.23-9.38,9.5-.94-.05-1.2,4.72-1.5,5.21-.11,2.32,7.72-.59,7.58,1.75-3.9,18.18-9.79,32.38,16.69,25.16l-.11-6.74c-3.49.33-11.06,1.71-9.76-4.05.33-.21,2.6-16.18,3.73-15.25"/><path class="cls-2" d="M184.9,46.52h-10.97l-5.61,25.31h11.01l3.82-17.17h22.15l1.88-8.21-22.29.07ZM177,32.65l-.9,4.06h36.05l1.85-8.28h-31.18c-2.84,0-5.29,1.77-5.83,4.22"/><path class="cls-2" d="M246.39,47.09c-3.11,2.26-13.4,1.11-17.29,1.37.24-1.16,2.33-10.4,2.61-11.79,3.6.4,13.89-1.18,16.62,1.55,2.43,2.15.71,7.45-1.94,8.87M260.21,36.71c-3.26-11.77-22.24-7.49-31.51-8.28-5.14-.07-7.65,3.95-8.06,8.28-1.43,6.48-6.26,28.29-7.77,35.12h11.01l3.53-15.69c14.01.7,36.1-.32,32.81-19.42M247.21,54.98l-.76-1.43-10.72,1.79.4.8,7.79,15.69h12.13l-8.84-16.85Z"/><path class="cls-2" d="M281.68,28.43c-10.28-.26-10.25,11.02-12.04,18.09,0,0-5.61,25.31-5.61,25.31h38.39l1.92-8.44h-27.47l2.19-9.73h24.14c.09-.4,1.74-7.95,1.77-8h-24.14c.68-1.26.95-9.26,3.34-8.85h25.54c.02-.08,1.81-8.29,1.83-8.38h-29.86Z"/><path class="cls-2" d="M329.83,28.43c-10.43-.26-10.7,10.82-12.42,18.09,0,0-5.58,25.31-5.58,25.31h38.39l1.9-8.44h-27.45l2.19-9.73h24.12c.09-.4,1.74-7.95,1.76-8h-24.12c.51-.78,1.19-9.28,2.86-8.85h26c.02-.08,1.81-8.29,1.83-8.38h-29.48Z"/><path class="cls-2" d="M387.96,27.81c-6.48.05-13.2,1.09-17.96,4.96-5.3,4.42-6.51,14.26.29,17.67,3.71,2.82,13.45,3.62,16.57,7.18,3.06,9.54-22.2,5.17-26.04,6.22l-1.58,8.35c12.83.23,43.42,3.89,39.12-18.69-2.45-6.15-13.15-7.41-18.43-9.51-4.34-.94-3.77-5.33,0-6.59,4.58-1.83,18.12-.5,22.07-.68l1.58-8.35s-14.27-.56-15.63-.56"/><path class="cls-2" d="M411.62,28.43c-.05.17-1.77,8.28-1.83,8.44h16.37c-1.4,6.38-6.22,28.22-7.71,34.96h10.94c1.53-6.86,6.33-28.47,7.77-34.96h16.3c.06-.15,1.79-8.27,1.83-8.44h-43.69Z"/><path class="cls-2" d="M496.87,28.43c-4.27,5.31-11.67,14.52-15.95,19.83h-.22c-2.19-5.32-6.05-14.52-8.24-19.83h-11.93c3.86,8.32,9.17,19.82,13.04,28.15l-3.4,15.24h10.94l3.17-14.32c7.86-8.61,18.71-20.5,26.56-29.07h-13.98Z"/><path class="cls-2" d="M522.55,63.39c2.22-10.01,5.58-25.04,7.77-34.96h-11.01c-2.45,11.1-7.09,32.08-9.6,43.39h36.14l1.83-8.44h-25.13Z"/><path class="cls-2" d="M571.95,28.43c-10.37-.26-10.51,10.91-12.26,18.09,0,0-5.58,25.31-5.58,25.31h38.39l1.9-8.44h-27.45l2.19-9.73h24.12c.09-.4,1.74-7.95,1.77-8h-24.12c.53-.84,1.15-9.27,2.91-8.85h25.94c.02-.08,1.81-8.29,1.83-8.38h-29.64Z"/></g></g></svg>