<?xml version="1.0" encoding="UTF-8"?><svg id="Layer_2" xmlns="http://www.w3.org/2000/svg" viewBox="0 0 140.13 142.52"><defs><style>.cls-1{fill:#fff;stroke-width:0px;}</style></defs><g id="Layer_1-2"><path class="cls-1" d="M133.25,41.65c-41.11,7.63-90.47,45.09-111.8,82.21-4.27-4.26-10.69-17.71-14.33-28.42-6.12-18.02-1.51-35.59-1.17-36.15.81,4.79,6.27,23.77,12.32,17.63,7.9-9.43,16.57-19.05,30.12-29.36,18.28-13.91,39.79-28.43,64.08-32.69,1.16-.2,2.36-.07,3.44.39,4.63,1.95,8.06,7.17,10.89,11.1,4.42,6.15,6.76,10.73,7.18,13,.09.49-.23,2.19-.73,2.29M124.45,83.96c-1.68-5.64-2.54-8.48-4.33-12.16-.99-2.05-4.13-1.55-6.15-1.15-12.22,2.77-26.45,12.63-40.36,23.92-15.87,12.72-23.96,23.16-32.22,33.88-.09.07-.18.14-.27.21-.03.03-.07.05-.1.07-.04.04-.08.06-.12.09-.01,0-.02,0-.04.02-.02.02-.04.03-.05.03-.07.05-.14.08-.21.12-.74.41-1.58.65-2.46.65-4.45.02-7.42-.67-12.33-1.18-.14,0-.22-.15-.15-.26,14.03-29.42,74.2-77.95,105.54-80.04,1.05-.26,2.04.46,2.34,1.55,3.47,12.95-9.08,34.25-9.08,34.25M124.95,112.04c-.1,7.84-1.9,9.82-3.72,10.95-5.88,3.69-16.56,10.3-26.05,14.75,0-6.41-.6-11.01-3.5-22.55-3.17-12.65-7.74-21.19-7.26-21.54,6.91-5.49,30.61-20.78,32.74-17.11,4.67,8.04,7.91,26.31,7.79,35.5M89.16,137.93c-1.62,1.32-3.98.67-5.73.45-9.32-1.16-21.25-8.78-29.89-17.32,1.39-1.97,4.44-5,6.6-6.82l9.89,9.21,2.8-1.92-9.81-10.06c1.02-1.3,5.58-5.2,6.71-6.49.06,0,4.03-3.97,9.3-7.64,3.18,5.96,6.13,12.62,8.45,22.15,2.69,11.1,3.72,16.83,1.69,18.45M9.78,54.55c5.71.96,11.46,2.64,16.97,4.56-4.13,4.26-7.33,7.79-10.05,11.22-.45.56-1.31.49-1.69-.12-3.72-6.6-8.29-15.8-5.22-15.66M17.27,40.9c-.1-2.39.51-9.02,1.56-12.95,1.49-5.62,3.74-8.49,6.05-11.13.36-.41,1.05-.39,1.47-.05,10.36,8.39,15.8,14.34,22.99,22.62-9.42,7.11-18.48,15.89-18.48,15.89,0,0-8.9-9.29-13.59-14.37M31.41,12.16c6.45-3.81,18.83-9.77,34.39-7.87.05,0,.09,0,.14.03,8.48,2.12,14.74,6.71,21.1,13.38-12.56,5.01-24.24,13.1-32.6,18.71-7.49-8.28-12.31-14.17-23.33-23.41-.33-.26-.08-.61.29-.84M136.75,33.08c-.47-1.05-2.08-3.99-2.99-5.47-1.12-1.79-10.23-15.09-16.15-17.14-6.1-2.11-17.79,2.18-25.65,5.44l-1.69-1.76c-5.19-5.45-13.46-11.2-18.97-12.95C67.74.08,59.44-.17,56.36.1c-8.03.7-22.62,5.57-26.38,8.27-1.32.95-6.8,4.26-8.09,5.74-2.54,2.91-5.16,6.28-6.86,12.64-1.17,4.4-1.78,11.38-1.67,14.07l.06,1.35c3.25,3.56,7.85,8.38,11.29,12-5.52-1.76-10.11-2.97-14.76-3.66-3.74.34-6.46,4.4-7.76,7.56-1.43,4.39-4.4,21.33.66,38.26,1.1,3.7,9.05,25.18,17.39,33.18.68.65,1.91,1.81,3.28,1.94,4.7.48,11.89,1.59,16.69,1.58,1.47-.02,2.65-.41,4.51-1.91.68-.55,1.46-1.27,1.98-1.96,1.44-1.86,2.39-2.92,3.84-4.76,0,0,18.95,15.6,29.14,17.35,8.68,1.49,13.18.64,17.15-.86,1.63-.77,3.32-1.6,5-2.47,9.03-4.68,18.65-9.81,21.99-11.91,3.74-2.34,5.38-7.11,5.5-14.51.07-4.19-.4-13.47-2.38-21.88l2.77-4.04c2.7-4.79,6.1-13.03,7.94-20.17,2.02-7.84,4.83-20.04-.88-32.81"/></g></svg>